HIERARCHY
ROOT Hips
{
	OFFSET 0.000000 0.000000 0.000000
	CHANNELS 6 Xposition Yposition Zposition Zrotation Yrotation Xrotation 
	JOINT LowerBack
	{
		OFFSET 0.000000 0.000000 0.000000
		CHANNELS 3 Zrotation Yrotation Xrotation
		JOINT Spine
		{
			OFFSET 0.028270 2.035590 -0.193380
			CHANNELS 3 Zrotation Yrotation Xrotation
			JOINT Spine1
			{
				OFFSET 0.056720 2.048850 -0.042750
				CHANNELS 3 Zrotation Yrotation Xrotation
				JOINT Neck
				{
					OFFSET 0.000000 0.000000 0.000000
					CHANNELS 3 Zrotation Yrotation Xrotation
					JOINT Neck1
					{
						OFFSET -0.054170 1.746240 0.172020
						CHANNELS 3 Zrotation Yrotation Xrotation
						JOINT Head
						{
							OFFSET 0.104070 1.761360 -0.123970
							CHANNELS 3 Zrotation Yrotation Xrotation
							End Site
							{
								OFFSET 0.000000 0.000000 0.000000
							}
						}
					}
				}
				JOINT LeftShoulder
				{
					OFFSET 0.000000 0.000000 0.000000
					CHANNELS 3 Zrotation Yrotation Xrotation
					JOINT LeftArm
					{
						OFFSET 3.362410 1.200890 -0.311210
						CHANNELS 3 Zrotation Yrotation Xrotation
						JOINT LeftForeArm
						{
							OFFSET 4.983000 -0.000000 -0.000000
							CHANNELS 3 Zrotation Yrotation Xrotation
							JOINT LeftHand
							{
								OFFSET 3.483560 -0.000000 -0.000000
								CHANNELS 3 Zrotation Yrotation Xrotation
								JOINT LeftFingerBase
								{
									OFFSET 0.000000 0.000000 0.000000
									CHANNELS 3 Zrotation Yrotation Xrotation
									JOINT LeftHandIndex1
									{
										OFFSET 0.715260 -0.000000 -0.000000
										CHANNELS 3 Zrotation Yrotation Xrotation
										End Site
										{
											OFFSET 0.000000 0.000000 0.000000
										}
									}
								}
								JOINT LThumb
								{
									OFFSET 0.000000 0.000000 0.000000
									CHANNELS 3 Zrotation Yrotation Xrotation
									End Site
									{
										OFFSET 0.000000 0.000000 0.000000
									}
								}
							}
						}
					}
				}
				JOINT RightShoulder
				{
					OFFSET 0.000000 0.000000 0.000000
					CHANNELS 3 Zrotation Yrotation Xrotation
					JOINT RightArm
					{
						OFFSET -3.136600 1.374050 -0.404650
						CHANNELS 3 Zrotation Yrotation Xrotation
						JOINT RightForeArm
						{
							OFFSET -5.241900 -0.000000 -0.000000
							CHANNELS 3 Zrotation Yrotation Xrotation
							JOINT RightHand
							{
								OFFSET -3.444170 -0.000000 -0.000000
								CHANNELS 3 Zrotation Yrotation Xrotation
								JOINT RightFingerBase
								{
									OFFSET 0.000000 0.000000 0.000000
									CHANNELS 3 Zrotation Yrotation Xrotation
									JOINT RightHandIndex1
									{
										OFFSET -0.622530 -0.000000 -0.000000
										CHANNELS 3 Zrotation Yrotation Xrotation
										End Site
										{
											OFFSET 0.000000 0.000000 0.000000
										}
									}
								}
								JOINT RThumb
								{
									OFFSET 0.000000 0.000000 0.000000
									CHANNELS 3 Zrotation Yrotation Xrotation
									End Site
									{
										OFFSET 0.000000 0.000000 0.000000
									}
								}
							}
						}
					}
				}
			}
		}
	}
}
}
MOTION
Frames: 7
Frame Time: 0.008333
3.308039 16.200792 0.333363 163.678313 -73.380973 -147.290073 -7.687018 -2.174910 -1.270201 -1.969370 -1.610447 -3.706514 -5.596947 -1.572989 -3.095922 10.354583 -5.416802 -3.876462 -2.688032 -0.241103 0.873469 0.000000 0.000000 0.000000 4.751800 7.691663 3.558689 -61.131375 16.449054 -21.491598 -179.521699 -64.836499 179.923047 10.514334 -8.627455 -0.866673 -0.199263 0.626747 -0.000000 0.000000 0.000000 0.000000 0.000000 0.000000 0.000000 3.974061 1.833658 -4.748200 84.588746 45.824293 25.975450 -179.851333 61.603138 179.755100 -18.855019 18.247712 -3.349363 0.439053 -1.274435 -0.000000 0.000000 0.000000 0.000000 0.000000 0.000000 0.000000 
3.291393 16.219723 0.331233 166.012892 -71.208465 -149.365817 -7.337001 -2.151919 -1.519970 -1.910883 -1.624867 -3.685316 -5.612449 -1.593447 -2.733347 10.556782 -5.750227 -4.248627 -2.610144 -0.231555 0.778698 0.000000 0.000000 0.000000 4.782799 8.420193 3.728431 -60.054921 17.918566 -22.693821 -179.446207 -65.584790 179.931459 10.010673 -8.395716 -0.802108 -0.195372 0.599094 -0.000000 0.000000 0.000000 0.000000 0.000000 0.000000 0.000000 4.030213 1.660187 -4.758532 84.193774 46.028830 26.555560 -179.962832 61.528854 179.759139 -18.936474 18.037516 -3.328731 0.458142 -1.268945 -0.000000 0.000000 0.000000 0.000000 0.000000 0.000000 0.000000 
3.272658 16.245565 0.330815 168.066159 -69.005117 -151.112073 -6.908937 -2.115155 -1.788577 -1.838811 -1.632760 -3.664724 -5.629313 -1.606659 -2.359615 10.746211 -6.079565 -4.611194 -2.527786 -0.221671 0.687017 0.000000 0.000000 0.000000 4.856512 9.132106 3.889062 -58.843806 19.237295 -23.790881 -179.373614 -66.432126 179.939653 9.464013 -8.164019 -0.736638 -0.191923 0.573209 -0.000000 0.000000 0.000000 0.000000 0.000000 0.000000 0.000000 4.066376 1.466195 -4.759609 83.693152 46.261605 27.033408 179.939017 61.432662 179.762833 -19.021131 17.811959 -3.305322 0.476292 -1.262421 -0.000000 0.000000 0.000000 0.000000 0.000000 0.000000 0.000000 
3.251544 16.277945 0.331930 169.908982 -66.785037 -152.592544 -6.404587 -2.064267 -2.076980 -1.753353 -1.633707 -3.645109 -5.648751 -1.612025 -1.976117 10.919131 -6.398621 -4.962618 -2.442467 -0.211566 0.598687 0.000000 0.000000 0.000000 4.964785 9.829432 4.041221 -57.472410 20.382115 -24.760905 -179.304243 -67.388184 179.947743 8.861532 -7.923002 -0.669060 -0.188851 0.548854 -0.000000 0.000000 0.000000 0.000000 0.000000 0.000000 0.000000 4.083761 1.255891 -4.751842 83.083520 46.521392 27.401546 179.855610 61.310327 179.766133 -19.108767 17.573568 -3.279337 0.493316 -1.254924 -0.000000 0.000000 0.000000 0.000000 0.000000 0.000000 0.000000 
3.228269 16.316223 0.334190 171.583609 -64.560742 -153.850463 -5.828145 -1.998771 -2.380014 -1.655208 -1.626794 -3.626495 -5.670944 -1.608424 -1.588031 11.071460 -6.704786 -5.299887 -2.355484 -0.201372 0.514368 0.000000 0.000000 0.000000 5.111696 10.500242 4.185005 -55.927464 21.352130 -25.576662 -179.242048 -68.462761 179.955444 8.243283 -7.682604 -0.603471 -0.186878 0.526206 -0.000000 0.000000 0.000000 0.000000 0.000000 0.000000 0.000000 4.084611 1.030788 -4.735235 82.369977 46.806259 27.655667 179.788591 61.169416 179.769025 -19.195860 17.330728 -3.251680 0.508713 -1.246551 -0.000000 0.000000 0.000000 0.000000 0.000000 0.000000 0.000000 
3.202866 16.359671 0.337486 173.128676 -62.345878 -154.924983 -5.185530 -1.918534 -2.693806 -1.545412 -1.611346 -3.608838 -5.696849 -1.594970 -1.199295 11.202069 -6.997591 -5.620321 -2.268349 -0.191240 0.434637 0.000000 0.000000 0.000000 5.296048 11.134589 4.320805 -54.198006 22.144900 -26.224491 -179.190100 -69.657950 179.962647 7.630067 -7.440587 -0.541269 -0.186300 0.505207 -0.000000 0.000000 0.000000 0.000000 0.000000 0.000000 0.000000 4.074192 0.790593 -4.709500 81.554493 47.116192 27.793617 179.738919 61.012522 179.771449 -19.285785 17.084740 -3.223151 0.522399 -1.237305 -0.000000 0.000000 0.000000 0.000000 0.000000 0.000000 0.000000 
3.175817 16.407363 0.341477 174.562612 -60.154417 -155.840678 -4.486037 -1.823954 -3.007717 -1.425445 -1.586642 -3.591467 -5.725270 -1.570781 -0.817060 11.308729 -7.279332 -5.919153 -2.181790 -0.181297 0.360619 0.000000 0.000000 0.000000 5.534953 11.707714 4.449082 -52.299093 22.774922 -26.691215 -179.153740 -70.986289 179.969036 7.077843 -7.236948 -0.488649 -0.187730 0.486682 -0.000000 0.000000 0.000000 0.000000 0.000000 0.000000 0.000000 4.054820 0.531367 -4.674890 80.648306 47.448339 27.812452 179.708379 60.852266 179.773405 -19.373749 16.843215 -3.194252 0.533757 -1.227246 -0.000000 0.000000 0.000000 0.000000 0.000000 0.000000 0.000000 
